<svg xmlns="http://www.w3.org/2000/svg" viewBox="0 0 640 360" role="img" aria-labelledby="logoTitle logoDesc">
  <title id="logoTitle">Community Drafting Monogram Logo</title>
  <desc id="logoDesc">Interlocking C and D monogram in graphite and blue gradients.</desc>
  <defs>
    <linearGradient id="leftGrad" x1="80" y1="180" x2="300" y2="180" gradientUnits="userSpaceOnUse">
      <stop offset="0" stop-color="#565a61"/>
      <stop offset="0.45" stop-color="#8d9198"/>
      <stop offset="1" stop-color="#53575e"/>
    </linearGradient>
    <linearGradient id="rightGrad" x1="340" y1="180" x2="560" y2="180" gradientUnits="userSpaceOnUse">
      <stop offset="0" stop-color="#3d6dce"/>
      <stop offset="0.55" stop-color="#78a9e4"/>
      <stop offset="1" stop-color="#3b63c4"/>
    </linearGradient>
    <linearGradient id="bridgeGrad" x1="280" y1="214" x2="360" y2="214" gradientUnits="userSpaceOnUse">
      <stop offset="0" stop-color="#7aa8dc"/>
      <stop offset="1" stop-color="#314ea8"/>
    </linearGradient>
    <filter id="shadow" x="-10%" y="-10%" width="120%" height="130%">
      <feDropShadow dx="0" dy="6" stdDeviation="4" flood-color="#1b2d54" flood-opacity="0.18"/>
    </filter>
  </defs>

  <g filter="url(#shadow)">
    <path
      d="M80 180c0-69 56-125 125-125h131v58h-131c-37 0-67 30-67 67s30 67 67 67h131v58h-131c-69 0-125-56-125-125Z"
      fill="url(#leftGrad)"
    />
    <path
      d="M560 180c0 69-56 125-125 125H304v-58h131c37 0 67-30 67-67s-30-67-67-67H304V55h131c69 0 125 56 125 125Z"
      fill="url(#rightGrad)"
    />
    <path d="M264 224h112c0 30-24 54-54 54h-58v-54Z" fill="url(#bridgeGrad)"/>
    <rect x="298" y="55" width="42" height="72" rx="8" fill="#4c5057"/>
    <rect x="300" y="55" width="40" height="72" rx="8" fill="#2f5fc1" opacity="0.88" transform="translate(40 0)"/>

    <path
      d="M105 180c0-55 45-100 100-100h110v24H205c-42 0-76 34-76 76s34 76 76 76h110v24H205c-55 0-100-45-100-100Z"
      fill="none"
      stroke="#edf2f8"
      stroke-width="3"
      opacity="0.85"
    />
    <path
      d="M535 180c0 55-45 100-100 100H325v-24h110c42 0 76-34 76-76s-34-76-76-76H325V80h110c55 0 100 45 100 100Z"
      fill="none"
      stroke="#e8f1ff"
      stroke-width="3"
      opacity="0.8"
    />
  </g>
</svg>
