<svg xmlns="http://www.w3.org/2000/svg" viewBox="0 0 640 400" role="img" aria-labelledby="logoTitle logoDesc">
  <title id="logoTitle">Community Drafting monogram</title>
  <desc id="logoDesc">Interlocked C and D style mark in gray and blue gradients.</desc>
  <defs>
    <linearGradient id="leftGrad" x1="0%" y1="0%" x2="100%" y2="100%">
      <stop offset="0%" stop-color="#b9bcc1" />
      <stop offset="100%" stop-color="#4a4f56" />
    </linearGradient>
    <linearGradient id="rightGrad" x1="0%" y1="0%" x2="100%" y2="100%">
      <stop offset="0%" stop-color="#8fc0ee" />
      <stop offset="100%" stop-color="#275fc8" />
    </linearGradient>
  </defs>

  <path
    d="M258 80H180c-55 0-100 45-100 100s45 100 100 100h78v-42h-66c-32 0-58-26-58-58s26-58 58-58h66z"
    fill="url(#leftGrad)"
  />
  <path
    d="M382 80h78c55 0 100 45 100 100s-45 100-100 100h-78v-42h66c32 0 58-26 58-58s-26-58-58-58h-66z"
    fill="url(#rightGrad)"
  />
  <rect x="246" y="80" width="24" height="82" rx="8" fill="#545960" />
  <rect x="370" y="80" width="24" height="82" rx="8" fill="#2f5db6" />
  <path d="M246 280h148c-10 0-19 5-24 13l-12 18H246z" fill="#7fb4e8" opacity="0.9" />
</svg>
